<?xml version="1.0" encoding="utf-8"?>
<!-- Generator: Adobe Illustrator 22.0.1, SVG Export Plug-In . SVG Version: 6.00 Build 0)  -->
<svg version="1.1" id="Layer_1" xmlns="http://www.w3.org/2000/svg" xmlns:xlink="http://www.w3.org/1999/xlink" x="0px" y="0px"
	 viewBox="0 0 266 57" style="enable-background:new 0 0 266 57;" xml:space="preserve">
<style type="text/css">
	.st0{fill:#072D6C;enable-background:new    ;}
	.st1{fill:#072D6C;}
</style>
<title>Page 1</title>
<desc>Created with Sketch.</desc>
<g id="Page-1" transform="translate(250.000000, 39.000000)">
	<path id="Fill-1" class="st0" d="M-221.3-39L-250,17.4h12.6l5.3-10.4h23.3l4.9,10.5h12.5L-218-39H-221.3z M-219.9-16.9l5.9,12.6
		h-12.3L-219.9-16.9z"/>
	<polygon id="Fill-2" class="st0" points="-146.5,-39 -146.5,-7.5 -177.7,-39 -181.2,-39 -181.2,17.4 -170,17.4 -170,-15.5
		-138.3,17.4 -135.3,17.4 -135.3,-39 	"/>
	<polygon id="Fill-3" class="st1" points="-117.7,17.4 -106.4,17.4 -106.4,-39 -117.7,-39 	"/>
	<polygon id="Fill-4" class="st0" points="-22.3,-39 -22.3,17.4 15,17.4 15,6.1 -11,6.1 -11,-6.1 10.7,-6.1 10.7,-17.3 -11,-17.3
		-11,-27.7 15.3,-27.7 15.3,-39 	"/>
	<polygon id="Fill-5" class="st1" points="-87.2,-39 -67.2,-10.8 -87.2,17.4 -73.4,17.4 -60.3,-1 -53.3,-10.8 -60.3,-20.5
		-73.4,-39 	"/>
	<polygon id="Fill-6" class="st0" points="-57.3,3.1 -47.1,17.4 -33.3,17.4 -50.4,-6.7 	"/>
	<polygon id="Fill-7" class="st0" points="-47.1,-39 -57.3,-24.7 -50.4,-14.9 -33.3,-39 	"/>
	<path id="Fill-8" class="st1" d="M-82.4-10.6c0,4.5-3.7,8.2-8.2,8.2s-8.2-3.7-8.2-8.2s3.7-8.2,8.2-8.2
		C-86-18.8-82.4-15.1-82.4-10.6"/>
</g>
</svg>
